<!-- Generator: Adobe Illustrator 24.3.0, SVG Export Plug-In  -->
<svg version="1.1" xmlns="http://www.w3.org/2000/svg" xmlns:xlink="http://www.w3.org/1999/xlink" x="0px" y="0px" width="65.17px"
	 height="52.17px" viewBox="0 0 65.17 52.17" style="overflow:visible;enable-background:new 0 0 65.17 52.17;"
	 xml:space="preserve">
<style type="text/css">
	.st0{fill:#29A7DF;}
</style>
<defs>
</defs>
<g>
	<rect x="10.5" y="23.76" class="st0" width="9.13" height="4.33"/>
	<polygon class="st0" points="19.63,29.84 19.63,25.98 19.63,22.11 21.98,24.05 24.34,25.98 21.98,27.91 	"/>
	<path class="st0" d="M23.25,23.76c0.91,0.7,1.83,1.4,2.74,2.1c-0.89,0.73-1.79,1.45-2.69,2.18c3.72,0.01,7.45,0.02,11.17,0.03
		c0.33-0.02,0.83-0.07,1.42-0.18c3.76-0.72,6.15-3.03,6.67-3.56c0.48-0.48,1.86-1.95,2.84-4.3c1.08-2.58,1.09-4.81,1.08-5.44
		c0-0.5-0.06-2.06-0.67-3.95c-0.31-0.96-1.23-3.71-3.85-6.03c-1.99-1.77-4.1-2.44-5.05-2.74c-0.39-0.13-0.72-0.21-0.95-0.26
		C35.96,1.06,35.95,0.53,35.93,0c-1.54,1.27-3.09,2.53-4.63,3.8c1.57,1.27,3.14,2.53,4.7,3.8c0-0.5,0-0.99,0-1.49
		c0.17,0.06,0.42,0.15,0.69,0.26c0.64,0.27,2.94,1.3,4.4,3.8c2,3.44,0.89,7.04,0.75,7.49c-0.32,1.01-1.07,2.72-2.74,4.11
		c-0.37,0.31-1.6,1.29-3.46,1.75c-0.6,0.15-1.12,0.21-1.5,0.24C30.51,23.76,26.89,23.76,23.25,23.76z"/>
	<path class="st0" d="M32.59,1.43c-0.94,0.77-1.88,1.54-2.81,2.31c0.8,0.7,1.6,1.4,2.4,2.1c-0.35,0.04-0.84,0.12-1.4,0.3
		c-2.58,0.81-5.02,3.19-5.82,6.37c-0.08,0.32-1.02,4.36,1.52,7.75c1.03,1.37,2.23,2.11,2.97,2.49c-2.14,0.01-4.27,0.02-6.41,0.03
		c-0.14-0.23-0.34-0.55-0.57-0.95c-0.16-0.3-1.16-2.11-1.63-3.93c-0.75-2.94-0.09-5.76,0.18-6.74c0.94-3.4,2.91-5.45,3.49-6.03
		C27.66,2.02,31.4,1.53,32.59,1.43z"/>
	<path class="st0" d="M38.57,28.07c4.36,0.02,8.73,0.04,13.08,0.05c0.02,0.56,0.03,1.13,0.05,1.7c1.56-1.28,3.12-2.56,4.69-3.84
		c-1.56-1.27-3.12-2.54-4.69-3.81c0,0.54,0,1.09,0,1.63c-2.48,0-4.97,0-7.45,0c-0.06,0.1-0.17,0.26-0.32,0.46
		c-1.45,1.91-3.29,2.85-4.19,3.29C39.47,27.68,39.07,27.87,38.57,28.07z"/>
</g>
<path class="st0" d="M64.39,52.17H0.78C0.35,52.17,0,51.82,0,51.39v-5.38c0-0.43,0.35-0.78,0.78-0.78h63.61
	c0.43,0,0.78,0.35,0.78,0.78v5.38C65.17,51.82,64.83,52.17,64.39,52.17z"/>
</svg>
