<?xml version="1.0" encoding="utf-8"?>
<!-- Generator: Adobe Illustrator 24.3.0, SVG Export Plug-In . SVG Version: 6.00 Build 0)  -->
<svg version="1.1" id="Layer_1" xmlns="http://www.w3.org/2000/svg" xmlns:xlink="http://www.w3.org/1999/xlink" x="0px" y="0px"
	 viewBox="0 0 350 250" style="enable-background:new 0 0 350 250;" xml:space="preserve">
<style type="text/css">
	.st0{fill:#202020;}
	.st1{fill:url(#SVGID_1_);enable-background:new    ;}
	.st2{stroke:#000000;stroke-width:0.5981;stroke-miterlimit:10;}
	.st3{fill:#FFFFFF;stroke:#000000;stroke-width:0.6714;stroke-miterlimit:10;}
	.st4{stroke:#000000;stroke-width:0.6764;stroke-miterlimit:10;}
	.st5{stroke:#000000;stroke-width:0.6432;stroke-miterlimit:10;}
	.st6{fill:#FFFFFF;stroke:#000000;stroke-width:0.6432;stroke-miterlimit:10;}
	.st7{stroke:#000000;stroke-width:0.6635;stroke-miterlimit:10;}
	.st8{fill:#FFFFFF;stroke:#000000;stroke-width:0.8625;stroke-miterlimit:10;}
	.st9{fill:#FFFFFF;stroke:#000000;stroke-width:0.841;stroke-miterlimit:10;}
	.st10{stroke:#000000;stroke-width:0.6015;stroke-miterlimit:10;}
	.st11{fill:#FFFFFF;stroke:#000000;stroke-width:0.6085;stroke-miterlimit:10;}
	.st12{fill:none;stroke:#000000;stroke-width:0.0957;stroke-miterlimit:10;}
	.st13{fill:none;stroke:#000000;stroke-width:0.0941;stroke-miterlimit:10;}
	.st14{fill:#FFFFFF;stroke:#000000;stroke-width:0.5822;stroke-miterlimit:10;}
	.st15{stroke:#000000;stroke-width:0.6523;stroke-miterlimit:10;}
	.st16{opacity:0.9;}
	.st17{opacity:0.75;fill:#FFFFFF;enable-background:new    ;}
	.st18{fill:#FFFFFF;stroke:#000000;stroke-width:0.6523;stroke-miterlimit:10;}
	.st19{fill:none;}
	.st20{opacity:0.75;fill:#FFFFFF;}
	.st21{font-family:'Georgia-Bold';}
	.st22{font-size:21px;}
	.st23{stroke:#000000;stroke-width:0.5912;stroke-miterlimit:10;}
	.st24{fill:#FFFFFF;stroke:#000000;stroke-width:0.5912;stroke-miterlimit:10;}
	.st25{fill:#FFFFFF;stroke:#000000;stroke-width:0.5201;stroke-miterlimit:10;}
	.st26{stroke:#000000;stroke-width:0.5116;stroke-miterlimit:10;}
	.st27{fill:#FFFFFF;stroke:#000000;stroke-width:0.5116;stroke-miterlimit:10;}
	.st28{fill:#FFFFFF;stroke:#000000;stroke-width:0.571;stroke-miterlimit:10;}
	.st29{fill:none;stroke:#000000;stroke-width:0.1015;stroke-miterlimit:10;}
	.st30{fill:none;stroke:#000000;stroke-width:0.0998;stroke-miterlimit:10;}
	.st31{fill:#FFFFFF;stroke:#000000;stroke-width:0.5344;stroke-miterlimit:10;}
	.st32{fill:#FFFFFF;stroke:#000000;stroke-width:0.5565;stroke-miterlimit:10;}
	.st33{fill:#FFFFFF;stroke:#000000;stroke-width:0.582;stroke-miterlimit:10;}
	.st34{fill:none;stroke:#000000;stroke-width:2.6776;stroke-miterlimit:10;}
	.st35{stroke:#000000;stroke-width:0.5605;stroke-miterlimit:10;}
	.st36{stroke:#000000;stroke-width:0.4399;stroke-miterlimit:10;}
	.st37{fill:#FFFFFF;stroke:#000000;stroke-width:0.5605;stroke-miterlimit:10;}
	.st38{stroke:#000000;stroke-width:0.4862;stroke-miterlimit:10;}
	.st39{stroke:#000000;stroke-width:0.5296;stroke-miterlimit:10;}
	.st40{stroke:#000000;stroke-width:0.5873;stroke-miterlimit:10;}
	.st41{fill:#FFFFFF;stroke:#000000;stroke-width:0.5906;stroke-miterlimit:10;}
	.st42{stroke:#000000;stroke-width:0.5754;stroke-miterlimit:10;}
	.st43{fill:#FFFFFF;stroke:#000000;stroke-width:0.5787;stroke-miterlimit:10;}
	.st44{stroke:#000000;stroke-width:0.5159;stroke-miterlimit:10;}
	.st45{fill:#FFFFFF;stroke:#000000;stroke-width:0.5159;stroke-miterlimit:10;}
	.st46{fill:#FFFFFF;stroke:#000000;stroke-width:0.5482;stroke-miterlimit:10;}
	.st47{fill:#FFFFFF;stroke:#000000;stroke-width:0.5595;stroke-miterlimit:10;}
	.st48{fill:#FFFFFF;stroke:#000000;stroke-width:0.6901;stroke-miterlimit:10;}
	.st49{fill:#FFFFFF;stroke:#000000;stroke-width:0.5796;stroke-miterlimit:10;}
</style>
<g>
	<rect x="0.6" class="st0" width="350" height="250"/>
</g>
<radialGradient id="SVGID_1_" cx="179.5077" cy="107.3515" r="100.9949" gradientUnits="userSpaceOnUse">
	<stop  offset="0.8073" style="stop-color:#00AAEC"/>
	<stop  offset="0.8391" style="stop-color:#0497D0"/>
	<stop  offset="0.908" style="stop-color:#106788"/>
	<stop  offset="1" style="stop-color:#202020"/>
</radialGradient>
<ellipse class="st1" cx="179.51" cy="107.35" rx="99.76" ry="102.21"/>
<path class="st2" d="M245.73,129.65c-2.63-1.41-4.68-4.59-4.12-7.82c0.23-1.34,1.03-2.57,1.96-3.42c-0.57-0.49-1.14-0.97-1.6-1.71
	c-1.83-2.93-1.96-7.33,0-10.38c1.26-2.2,3.1-2.93,4.01-3.42c1.48-0.74,2.87-0.86,3.67-0.86c1.26,0,2.41,0.25,3.44,0.86
	c0.23-0.74,0.46-1.34,1.03-1.95c0.8-0.86,1.83-1.34,2.98-1.34c1.16,0,2.3,0.49,2.98,1.34c1.14,1.34,0.91,11.36,0.91,11.98
	c0,0.49,0,0.97,0,1.46c0,0.97,0,1.95,0,2.93c0,1.07-0.04,2.26-0.11,4.65c-0.07,2.36-0.1,2.83-0.37,3.56
	c-0.45,1.21-1.13,2.01-1.4,2.3c-1.39,1.52-3.12,2.07-3.92,2.27c-1.04,0.31-2.66,0.67-4.66,0.59
	C249.23,130.65,247.47,130.59,245.73,129.65z M250.09,120.11c0.11,0.12,0.69,0.37,1.14,0.37c0.11,0,0.11,0,0.11,0
	c0.11-0.12,0.11-0.37,0.11-0.74C251.13,119.88,250.67,120.11,250.09,120.11L250.09,120.11z"/>
<path class="st3" d="M248.09,103.95c1.04-1.71,2.48-2.32,3.39-2.69c0.52-0.25,3.52-1.59,6.24,0c1.95,1.09,2.61,2.93,3.13,2.69
	c0.78-0.37-0.65-3.91,0.78-5.37c0.78-0.86,2.61-0.74,3.39,0c0.65,0.62,0.39,9.04,0.39,11.36c0,4.53,0.26,11.72-0.39,12.95
	c-1.3,2.57-4.81,3.17-6.78,3.54c-1.69,0.25-4.3,0.74-6.78-0.86c-1.43-0.86-3.91-3.05-3.39-5.37c0.26-1.46,1.69-2.82,2.87-2.69
	c1.3,0.12,1.43,1.71,3.39,2.69c0.26,0.12,2.48,1.22,4.04,0c1.69-1.46,1.3-5.25,0-6.11c-0.91-0.62-1.82,0.62-4.04,0.74
	c-0.52,0-4.17,0.25-6.11-2.69C246.54,109.69,246.67,106.15,248.09,103.95z"/>
<path class="st4" d="M211.77,129.85c-0.83,0-2.03-0.12-3.1-0.7c-1.42-0.81-2.39-2.08-2.51-3.93c-0.12-1.15,0.12-2.32,0.36-3.7
	c0.36-1.62,0.71-3.7,0.71-6.23c0-1.38-0.12-2.55-0.24-3.58c-0.12-1.38-0.24-2.55-0.12-3.58c0.24-1.73,1.07-3,2.51-3.7
	c0.71-0.35,1.42-0.47,2.27-0.47c1.19,0,1.78,0.35,2.74,0.81c1.42,0.81,2.15,2.08,2.27,3.82c0.12,1.15-0.12,2.2-0.47,3.47
	c-0.24,1.15-0.47,2.43-0.59,3.93c-0.12,2.32,0.83,4.17,1.19,5.78c0.24,1.27,0.47,2.32,0.47,3.47c-0.12,1.73-0.95,3.12-2.39,3.82
	C213.78,129.73,212.6,129.85,211.77,129.85L211.77,129.85z"/>
<path class="st5" d="M239.03,131.46c-1.17,0-2.25-0.62-2.99-1.73c-1.28-1.86-1.7-4.09-2.03-6.19c-0.32-1.61-0.64-3.34-1.38-5.32
	c-0.32-0.75-1.06-2.73-1.38-3.21l0,0c-0.53,0-1.17,1.11-2.03,3.21c-0.74,1.98-0.96,3.71-1.17,5.32c-0.21,2.1-0.43,4.21-1.82,6.19
	c-0.74,1.11-1.82,1.73-2.99,1.73c-1.06,0-2.25-0.5-2.99-1.48c-1.59-1.86-1.93-5.19-1.93-7.67c-0.11-5.57,1.49-13.36,5.12-18.07
	c2.14-2.85,4.9-4.46,7.57-4.46c0.11,0,0.21,0,0.32,0c2.88,0.12,5.45,1.86,7.79,5.07c3.52,5.07,5.01,12.99,4.9,18.18
	c-0.11,3.09-0.74,5.44-1.82,6.8C241.28,130.84,240.11,131.46,239.03,131.46z"/>
<path class="st6" d="M224.56,125c-2.46-2.96-1.49-15.72,3.2-21.91c0.64-0.87,2.99-3.84,6.4-3.59c3.41,0.12,5.66,3.21,6.4,4.33
	c4.37,6.31,5.55,18.31,3.2,21.28c-0.85,1.11-2.46,1.11-3.2,0c-1.82-2.73-1.28-6.07-3.2-10.88c-1.49-3.59-2.03-4.58-3.2-4.58
	s-2.25,0.87-3.73,4.58c-1.93,4.82-0.85,8.29-2.67,10.88C227.02,126.11,225.41,126.11,224.56,125z"/>
<path class="st7" d="M212.15,108.78c-3.04,0-5.49-2.5-5.49-5.56c0-2.72,2.46-5.56,5.49-5.56s4.9,2.5,4.9,5.56
	S215.19,108.78,212.15,108.78z"/>
<path class="st8" d="M212.06,100.38c0,1.89,1.09,3.51,3.68,3.51s4.5-1.62,4.5-3.51c0-1.89-2.04-3.51-4.5-3.51
	C213.3,96.85,212.06,98.47,212.06,100.38z"/>
<path class="st9" d="M213.84,104.2c-2.93,1-0.97,3.91-0.83,9.07c0.14,7.43-3.48,10.95,0,12.35c1.66,0.63,4.45,0.63,5.84,0
	c3.48-1.38-1.39-4.91-0.83-11.72c0.28-5.16,3.07-8.06,0-9.32C216.75,103.82,215.37,103.69,213.84,104.2z"/>
<path class="st10" d="M193.83,130.46c-1.29-0.13-2.6-0.65-3.53-1.67c-1.76-1.8-1.76-4.13-1.76-8.51c0-1.41,0-3.22-0.12-5.54
	c0-1.8-0.12-3.22-0.12-4.52c-0.23-4.39-0.35-6.71,1.29-8.64c0.94-1.15,2.36-1.8,3.77-1.8c1.29,0.13,2.48,0.78,3.18,1.8
	c0.35,0.52,0.59,1.02,0.7,1.54c0.59-0.39,1.29-0.91,2.13-1.41c1.53-0.91,3.07-1.67,4.47-1.54c0.82,0,1.53,0.39,2.24,1.02
	c2.24,2.06,2.13,6.45,2.13,7.73c-0.12,1.41-0.47,4.9-2.36,6.19c-0.47,0.39-1.06,0.52-1.53,0.52c-0.94,0-1.64-0.65-2.36-1.15
	c-0.47-0.39-0.94-0.65-1.29-0.78c-0.12,0-0.12,0-0.23,0c-0.7,0.13-1.29,1.15-1.64,1.8c-0.7,1.54-0.47,3.48-0.23,5.54
	c0.23,2.45,0.59,5.15-0.82,7.34C196.77,129.82,195.37,130.46,193.83,130.46z"/>
<path class="st11" d="M194.59,123.7c-1.29-1.45-0.82-3.69-1.06-12.14c-0.23-7.65-0.7-9.89,0.47-11.34c1.06-1.31,3.18-1.45,4-0.13
	c0.7,1.05,0.23,2.51,0.82,3.04c0.82,0.8,2.01-0.93,4.36-2.24c1.88-1.05,3.65-1.98,4.71-0.93c1.76,1.71,1.53,8.44,0,9.63
	c-1.17,0.93-2.48-2.24-4.71-1.71c-1.76,0.4-2.83,2.78-3.07,3.04c-2.13,4.62,0.82,10.02-0.94,12.8
	C198.13,125.41,195.76,125.03,194.59,123.7z"/>
<path class="st12" d="M78.9,177.4"/>
<path class="st12" d="M72.9,147.1"/>
<path class="st12" d="M71,150.1"/>
<path class="st13" d="M70.1,160.8"/>
<path class="st13" d="M81.4,139.3"/>
<path class="st14" d="M123.74,46.1"/>
<path class="st15" d="M209.64,97.23c-1.17,0-2.25-0.64-2.99-1.78c-1.28-1.91-1.7-4.2-2.03-6.36c-0.32-1.65-0.64-3.43-1.38-5.47
	c-0.32-0.77-1.06-2.81-1.38-3.3l0,0c-0.53,0-1.17,1.14-2.03,3.3c-0.74,2.04-0.96,3.82-1.17,5.47c-0.21,2.16-0.43,4.33-1.82,6.36
	c-0.74,1.14-1.82,1.78-2.99,1.78c-1.06,0-2.25-0.51-2.99-1.52c-1.59-1.91-1.93-5.34-1.93-7.89c-0.11-5.72,1.49-13.74,5.12-18.58
	c2.14-2.93,4.9-4.58,7.57-4.58c0.11,0,0.21,0,0.32,0c2.88,0.13,5.45,1.91,7.79,5.21c3.52,5.21,5.01,13.36,4.9,18.7
	c-0.11,3.18-0.74,5.6-1.82,6.99C211.89,96.59,210.72,97.23,209.64,97.23z"/>
<g class="st16">
	<g>
		<path class="st17" d="M72.2,228.7C72.2,228.6,72.2,228.6,72.2,228.7l-8.3,7.2l8.3,7c0-0.1,0-0.1,0-0.1V228.7L72.2,228.7z"/>
		<path class="st17" d="M62.7,236.9l-3.4,2.9c-0.2,0.1-0.4,0.2-0.6,0.2s-0.4-0.1-0.6-0.2l-3.4-2.9l-8.4,7.3c0.2,0.1,0.4,0.1,0.7,0.1
			h23.4c0.3,0,0.7-0.1,0.9-0.2L62.7,236.9z"/>
		<path class="st17" d="M58.7,238.2l12.7-11c-0.3-0.1-0.6-0.3-1-0.3H47c-0.5,0-0.9,0.2-1.2,0.4L58.7,238.2z"/>
		<path class="st17" d="M45,228.9v13.7c0,0.2,0,0.3,0.1,0.5l8.2-7.2L45,228.9z"/>
	</g>
</g>
<path class="st18" d="M196.18,90.67c-2.46-3.05-1.49-16.16,3.2-22.53c0.64-0.9,2.99-3.94,6.4-3.69c3.41,0.13,5.66,3.3,6.4,4.46
	c4.37,6.49,5.55,18.82,3.2,21.89c-0.85,1.14-2.46,1.14-3.2,0c-1.82-2.81-1.28-6.24-3.2-11.19c-1.49-3.69-2.03-4.71-3.2-4.71
	s-2.25,0.9-3.73,4.71c-1.93,4.96-0.85,8.53-2.67,11.19C198.63,91.81,197.03,91.81,196.18,90.67z"/>
<rect x="80" y="227.6" class="st19" width="291.9" height="17.2"/>
<text transform="matrix(1 0 0 1 79.9999 242.9005)" class="st20 st21 st22">Woodringj99@gmail.com</text>
<ellipse class="st23" cx="179.45" cy="80.94" rx="10.67" ry="15.65"/>
<ellipse class="st24" cx="183.26" cy="77.94" rx="8.86" ry="13.23"/>
<path class="st25" d="M149.57,95.11"/>
<path class="st25" d="M148.83,95.11"/>
<path class="st25" d="M152.67,95.11"/>
<path class="st26" d="M177.36,131.08c-0.64,0.13-1.28,0.13-1.93,0c-3.73-0.26-5.98-1.01-7.47-2.68c-1.38-1.53-2.25-4.21-2.14-7.01
	c0.11-3.18,1.28-6.12,3.2-7.91c1.28-1.14,2.88-1.91,4.48-2.04c0.53,0,1.06,0,1.49,0c-0.11-0.51-0.11-1.14-0.11-1.66
	c-0.21-3.95,0.53-6.88,2.14-8.68c0.96-1.14,2.46-1.78,3.95-1.91c1.7-0.13,3.41,0.26,4.69,1.27c1.93,1.53,2.14,4.85,2.14,7.52
	c0,3.05-0.43,7.27-0.96,13.13l-0.11,0.9v0.13c-0.11,0.9-0.21,2.81-0.96,4.21c-1.93,3.44-5.55,4.34-6.62,4.6
	C178.42,130.95,177.89,130.95,177.36,131.08z"/>
<path class="st27" d="M179.95,111.88c-1.38-1.66-4.9-1.53-7.04,0.51c-2.99,2.68-2.99,8.55-0.96,10.83c1.17,1.27,2.88,1.91,6.4,2.17
	c1.17,0.13,2.25-0.13,3.41-0.39c1.38-0.26,4.05-1.14,5.45-3.57c0.53-1.01,0.64-2.56,0.64-3.18c1.06-11.99,1.59-17.47-0.32-19
	c-1.82-1.4-4.9-1.27-6.51,0.39c-3.31,3.57-0.11,14.16-0.32,14.16C180.71,114.05,180.6,112.78,179.95,111.88z"/>
<path class="st28" d="M229.93,124.07"/>
<path class="st29" d="M248.69,153.76"/>
<path class="st30" d="M224.92,141.64"/>
<path class="st14" d="M122.94,61.06"/>
<path class="st14" d="M124.98,66.05"/>
<path class="st14" d="M122.94,67.11"/>
<path class="st31" d="M198.59,119.04"/>
<path class="st32" d="M262.76,108.35"/>
<path class="st33" d="M213.31,143.42"/>
<path class="st34" d="M104.3,135.73c1.94,1.34,4.85,3.12,8.94,4.57c17.12,6.47,35.31,2.12,53.17-2.35
	c36.81-9.26,83.21-7.25,88.59,2.35c0.11,0.22,1.29,2.35,0,4.57c-7,12.05-75.13,3.91-88.59,2.35c0,0-27.02-3.23-53.17,2.35
	c-7,1.45-8.61,4.13-8.94,4.57c-1.08,2.12-0.33,4.13,0,4.57c3.56,6.81,45.32,2.01,62,0.22c21.43-2.24,51.57-4.57,88.59-4.91"/>
<path class="st35" d="M150.4,82.52c-0.21,0.13-0.64,0.51-1.17,1.52c-0.64,1.27-0.96,2.81-0.74,3.69c0.32,1.91,3.31,2.81,5.45,2.29
	c2.99-0.64,5.22-4.07,6.09-7.12c0.74-2.55,0.74-4.96,0.64-6.99c0-0.13,0-0.38,0-0.51l0,0c0-1.91-0.11-4.71,1.59-6.11
	c1.06-0.9,2.25-0.9,3.63,0c0.85,0.51,1.7,1.4,2.56,2.29c0.64,0.64,1.59,1.65,2.14,1.91c0.21-0.77,0.11-2.81-0.64-4.71
	c-1.38-3.05-5.45-3.05-10.99-3.05s-9.61,0-10.99,3.05c-0.74,1.65-0.74,3.94-0.53,4.84c0.53-0.26,1.49-1.14,2.14-1.78
	c1.82-1.65,4.16-3.82,6.19-2.04s2.25,6.36,1.82,10.05c-0.32,2.29-1.06,6.11-3.1,6.75c-1.7,0.51-2.78-1.65-3.31-2.93
	C150.93,83.4,150.61,82.65,150.4,82.52z"/>
<path class="st36" d="M151.75,98.11c-1.28,0-2.56-0.26-3.63-0.77c-2.35-1.01-3.84-2.93-4.37-5.6c-0.64-3.3,0.53-6.75,1.7-8.66
	c0.32-0.51,0.53-0.9,0.85-1.27c-0.85,0-1.49-0.38-1.93-0.77c-2.35-2.16-2.25-8.14-0.53-11.83c2.46-5.47,7.68-5.47,14.3-5.47
	s11.73,0,14.3,5.47c0.85,1.91,1.38,4.2,1.38,6.24c0,2.55-0.64,4.58-1.93,5.72c-1.06,0.9-2.25,0.9-3.63,0
	c-0.85-0.51-1.7-1.4-2.56-2.16c-0.64-0.51-1.49-1.4-2.03-1.78c0,0.38,0,0.9,0,1.14l0,0c0,0.13,0,0.26,0,0.38
	c0.11,2.29,0.11,5.47-0.96,9.03c-1.59,5.34-5.22,9.28-9.08,10.05C152.92,98.11,152.29,98.11,151.75,98.11z M152.1,77.99
	c0.33-0.05,1.04-0.1,1.8,0.27c1.36,0.66,1.73,2.1,1.78,2.31c0.22-0.73,0.33-1.34,0.4-1.78c0.05-0.34,0.08-0.66,0.11-0.88
	c0.04-0.45,0.08-0.82,0.09-1.22c0.02-0.97,0.03-1.55-0.3-1.76c-0.06-0.04-0.37-0.22-1.07,0.18
	C154.65,75.25,152.31,77.29,152.1,77.99z M169.68,76.99L169.68,76.99L169.68,76.99z"/>
<path class="st37" d="M164.49,75.52c0,2.16,0.21,5.21-0.85,8.53c-1.28,4.07-4.16,7.89-7.57,8.53c-2.56,0.51-6.94-0.26-7.57-4.33
	c-0.64-3.56,1.82-8.53,3.84-8.53c1.93,0,2.56,4.58,3.84,4.33c1.7-0.38,2.78-9.8,0.74-11.58c-2.14-1.91-6.4,5.72-8.42,3.82
	c-1.28-1.14-1.28-5.6,0-8.53c1.93-4.33,6.4-4.33,12.7-4.33c6.3,0,10.67,0,12.7,4.33c1.38,3.05,1.49,7.25,0,8.53
	c-2.03,1.78-6.3-6.11-8.42-4.33C164.49,72.47,164.49,73.74,164.49,75.52"/>
<path class="st38" d="M125.53,70.43"/>
<path class="st39" d="M121.71,63.19"/>
<ellipse class="st40" cx="157.15" cy="115.91" rx="10.67" ry="15.65"/>
<ellipse class="st41" cx="159.97" cy="112.91" rx="8.86" ry="13.23"/>
<ellipse class="st42" cx="138.37" cy="115.91" rx="10.67" ry="15.65"/>
<ellipse class="st43" cx="141.3" cy="112.91" rx="8.86" ry="13.23"/>
<path class="st44" d="M122.08,130.99c-0.11,0-0.11,0-0.21,0c-2.56-0.24-3.73-3.68-4.8-6.64c-0.32-1.06-0.74-2.02-1.06-2.84
	c-0.21-0.48-0.43-0.84-0.53-0.94c-0.11,0.12-0.32,0.48-0.53,0.94c-0.32,0.84-0.74,1.78-1.06,2.84c-1.06,2.96-2.25,6.4-4.8,6.52
	c-0.11,0-0.11,0-0.21,0c-2.25,0-4.16-2.74-6.19-8.42c-1.38-4.04-2.35-8.2-2.78-11.04c-0.85-6.18,0-8.08,0.74-9.14
	c0.43-0.6,1.28-1.3,2.67-1.3c1.49,0,2.88,0.84,2.88,0.84c1.49,0.94,2.67,3.32,3.52,7.12c0.21,0.84,0.32,1.54,0.43,2.38
	c1.49-1.54,3.31-2.5,5.22-2.5c1.82,0,3.63,0.84,5.01,2.26c0.43-3.92,1.49-7.96,3.63-9.26c0.43-0.24,1.49-0.94,2.78-0.94
	c1.06,0,2.03,0.48,2.78,1.42c0.74,0.94,1.06,2.38,1.17,4.52c0.11,1.54-0.11,3.32-0.32,5.46c-0.53,3.92-1.59,8.3-2.78,11.76
	C125.92,128.74,124.12,130.99,122.08,130.99z"/>
<path class="st45" d="M103.95,100.93c-0.96,1.3,1.49,25.05,6.83,24.7c2.88-0.24,3.63-10.44,6.51-10.44c2.88,0,3.63,10.2,6.51,10.44
	c3.84,0.36,8.76-21.25,6.3-24.7c-0.85-1.18-2.46-0.48-3.31,0c-2.14,1.42-3.2,7.48-2.99,14.24c-1.38-6.06-3.2-7-6.51-7
	s-5.12,0.94-6.51,7c0.21-6.88-1.49-12.94-3.52-14.24C107.04,100.81,104.9,99.73,103.95,100.93z"/>
<path class="st46" d="M191.68,140.7"/>
<path class="st46" d="M189.66,130.01"/>
<path class="st46" d="M191,130.72"/>
<path class="st47" d="M179.51,126.68"/>
<path class="st48" d="M209.22,122.06"/>
<path class="st48" d="M209.67,125.62"/>
<path class="st49" d="M95.44,110.57"/>
</svg>
