<!-- Generator: Adobe Illustrator 24.3.0, SVG Export Plug-In  -->
<svg version="1.1" xmlns="http://www.w3.org/2000/svg" xmlns:xlink="http://www.w3.org/1999/xlink" x="0px" y="0px" width="64.92px"
	 height="52.17px" viewBox="0 0 64.92 52.17" style="overflow:visible;enable-background:new 0 0 64.92 52.17;"
	 xml:space="preserve">
<style type="text/css">
	.st0{fill:#FFFFFF;stroke:#000000;stroke-width:0.529;stroke-miterlimit:10;}
	.st1{fill:#29A7DF;}
	.st2{fill:#FFFFFF;stroke:#000000;stroke-width:0.5222;stroke-miterlimit:10;}
</style>
<defs>
</defs>
<g>
	<g>
		<path class="st0" d="M34.18,9.57"/>
		<path class="st0" d="M30.6,9.57"/>
		<path class="st1" d="M16.69,15.23c3.09,2.46,6.17,6.09,9.26,8.55h13.03l9.21-8.55L34.18,0v8.78v0.81c0.81,0.5,1.28,1.33,1.11,2.24
			c-0.18,0.97-1.17,1.79-2.38,1.96c-1.87,0.26-3.49-0.88-3.49-2.33c0-0.78,0.47-1.44,1.19-1.87V8.78V0"/>
		<path class="st1" d="M30.61,0c-4.4,4.49-9.8,10.91-13.92,15.23"/>
		<path class="st0" d="M25.94,22.91"/>
		<rect x="25.94" y="25.33" class="st1" width="13.04" height="5.13"/>
	</g>
	<path class="st2" d="M38.98,22.91"/>
	<path class="st2" d="M25.94,25.52"/>
</g>
<path class="st1" d="M64.14,52.17H0.78C0.35,52.17,0,51.82,0,51.39V46.2c0-0.43,0.35-0.78,0.78-0.78h63.36
	c0.43,0,0.78,0.35,0.78,0.78v5.19C64.92,51.82,64.57,52.17,64.14,52.17z"/>
</svg>
